<?xml version="1.0" encoding="UTF-8" standalone="no"?>
<!-- Created with Inkscape (http://www.inkscape.org/) -->

<svg
   xmlns:dc="http://purl.org/dc/elements/1.1/"
   xmlns:cc="http://creativecommons.org/ns#"
   xmlns:rdf="http://www.w3.org/1999/02/22-rdf-syntax-ns#"
   xmlns:svg="http://www.w3.org/2000/svg"
   xmlns="http://www.w3.org/2000/svg"
   xmlns:sodipodi="http://sodipodi.sourceforge.net/DTD/sodipodi-0.dtd"
   xmlns:inkscape="http://www.inkscape.org/namespaces/inkscape"
   version="1.1"
   width="744.09448"
   height="1052.3622"
   id="svg2"
   inkscape:version="0.48.4 r9939"
   sodipodi:docname="Bottle.svg">
  <sodipodi:namedview
     pagecolor="#ffffff"
     bordercolor="#666666"
     borderopacity="1"
     objecttolerance="10"
     gridtolerance="10"
     guidetolerance="10"
     inkscape:pageopacity="0"
     inkscape:pageshadow="2"
     inkscape:window-width="1598"
     inkscape:window-height="867"
     id="namedview2990"
     showgrid="false"
     inkscape:zoom="0.92882473"
     inkscape:cx="153.68069"
     inkscape:cy="450.13169"
     inkscape:window-x="0"
     inkscape:window-y="0"
     inkscape:window-maximized="1"
     inkscape:current-layer="svg2" />
  <defs
     id="defs4" />
  <metadata
     id="metadata7">
    <rdf:RDF>
      <cc:Work
         rdf:about="">
        <dc:format>image/svg+xml</dc:format>
        <dc:type
           rdf:resource="http://purl.org/dc/dcmitype/StillImage" />
        <dc:title />
      </cc:Work>
    </rdf:RDF>
  </metadata>
  <path
     inkscape:connector-curvature="0"
     style="font-size:medium;font-style:normal;font-variant:normal;font-weight:normal;font-stretch:normal;text-indent:0;text-align:start;text-decoration:none;line-height:normal;letter-spacing:normal;word-spacing:normal;text-transform:none;direction:ltr;block-progression:tb;writing-mode:lr-tb;text-anchor:start;baseline-shift:baseline;color:#000000;fill:#008000;fill-opacity:1;stroke:none;stroke-width:7.30000019;marker:none;visibility:visible;display:inline;overflow:visible;enable-background:accumulate;font-family:Sans;-inkscape-font-specification:Sans"
     id="path2990-9"
     d="m 233.51725,714.13073 c -23.8482,0 -46.57938,10.01661 -69.76725,16.99427 -9.17993,2.76241 -17.1875,-7.60094 -17.1875,-17.1875 l 0,-266.96875 c 0,-9.58656 7.60094,-17.1875 17.1875,-17.1875 l 23.65625,0 c 6.82319,0 11.9575,-0.65478 16,-2 4.0425,-1.34522 7.03859,-3.51759 8.90625,-6.25 3.73533,-5.46481 3.02175,-11.70835 3.214,-14.5573 0.003,-0.0833 0.19225,-30.84895 0.19225,-30.84895 0.003,-1.91525 -1.741,-3.65934 -3.65625,-3.65625 -1.54179,-3.61669 -2.16529,-8.04949 -0.5625,-11.6875 0.44593,-1.12038 0.51328,-1 1.57884,-1 2.44136,0 2.54687,-7.3125 0,-7.3125 -3.57579,-0.10195 -6.89805,2.51574 -8.20384,5.25 -1.17877,2.57417 -1.62672,5.48822 -1.625,8.40625 0.002,2.91803 0.44624,5.83431 1.625,8.40625 0.70686,1.5423 1.9422,3.04303 3.53125,4.0625 l -0.20481,28.39901 c -0.2048,3.11776 -0.14159,7.81138 -1.92019,10.41349 -0.90324,1.32145 -2.26622,2.46539 -5.1875,3.4375 -2.92128,0.97211 -7.34633,1.625 -13.6875,1.625 l -23.65625,0 c -13.50554,0 -24.5,10.99446 -24.5,24.5 l 0,266.96875 c 0,13.50554 11.45465,27.99549 24.5,24.5 22.95122,-6.14976 46.03954,-16.99427 69.76725,-16.99427"
     sodipodi:nodetypes="csssssssccccscccsccsssssssc" />
</svg>
